# xmcd
#
# Track frame offsets: 
#        150
#        19600
#        40053
#        58403
#        79495
#        101638
#        122213
#        146153
#        174245
#        194955
#
# Disc length: 2847 seconds
#
# Revision: 0
# Processed by: cddbd v1.5.2PL0 Copyright (c) Steve Scherf et al.
# Submitted via: ExactAudioCopy v1.0b3
#
DISCID=950b1d0a
DTITLE=Giao Linh - Chuyen Do Khong Em
DYEAR=1991
DGENRE=
TTITLE0=Chuyen xe lam chieu
TTITLE1=Truoc gio tam biet
TTITLE2=Ve goi tieng he
TTITLE3=Xin thoi gian qua mau (2 phuong troi cach biet)
TTITLE4=La thu do thi
TTITLE5=Nguoi yeu co don (Doi toi co don)
TTITLE6=Dem tam giao
TTITLE7=Do ai
TTITLE8=Chuyen do khong em
TTITLE9=Nguoi xa toi
EXTD=
EXTT0=
EXTT1=
EXTT2=
EXTT3=
EXTT4=
EXTT5=
EXTT6=
EXTT7=
EXTT8=
EXTT9=
PLAYORDER=
